<?xml version="1.0" encoding="UTF-8" standalone="no"?>
<!-- Created with Inkscape (http://www.inkscape.org/) -->
<svg
   xmlns:dc="http://purl.org/dc/elements/1.1/"
   xmlns:cc="http://web.resource.org/cc/"
   xmlns:rdf="http://www.w3.org/1999/02/22-rdf-syntax-ns#"
   xmlns:svg="http://www.w3.org/2000/svg"
   xmlns="http://www.w3.org/2000/svg"
   xmlns:xlink="http://www.w3.org/1999/xlink"
   xmlns:sodipodi="http://sodipodi.sourceforge.net/DTD/sodipodi-0.dtd"
   xmlns:inkscape="http://www.inkscape.org/namespaces/inkscape"
   width="128.00000pt"
   height="128.00000pt"
   id="svg6003"
   sodipodi:version="0.32"
   inkscape:version="0.45.1"
   sodipodi:docbase="/media/haibane/guitouze/SVN/gfx/2D/dungeons"
   sodipodi:docname="monster_skull.svg"
   inkscape:output_extension="org.inkscape.output.svg.inkscape">
  <defs
     id="defs3">
    <linearGradient
       id="linearGradient2425"
       inkscape:collect="always">
      <stop
         id="stop2427"
         offset="0"
         style="stop-color:#e2d69a;stop-opacity:1;" />
      <stop
         id="stop2429"
         offset="1"
         style="stop-color:#e2d69a;stop-opacity:0;" />
    </linearGradient>
    <linearGradient
       id="linearGradient2417"
       inkscape:collect="always">
      <stop
         id="stop2419"
         offset="0"
         style="stop-color:#e2d69a;stop-opacity:1;" />
      <stop
         id="stop2421"
         offset="1"
         style="stop-color:#e2d69a;stop-opacity:0;" />
    </linearGradient>
    <linearGradient
       id="linearGradient2409"
       inkscape:collect="always">
      <stop
         id="stop2411"
         offset="0"
         style="stop-color:#e2d69a;stop-opacity:1;" />
      <stop
         id="stop2413"
         offset="1"
         style="stop-color:#e2d69a;stop-opacity:0;" />
    </linearGradient>
    <linearGradient
       id="linearGradient2401"
       inkscape:collect="always">
      <stop
         id="stop2403"
         offset="0"
         style="stop-color:#e2d69a;stop-opacity:1;" />
      <stop
         id="stop2405"
         offset="1"
         style="stop-color:#e2d69a;stop-opacity:0;" />
    </linearGradient>
    <linearGradient
       id="linearGradient2159"
       inkscape:collect="always">
      <stop
         id="stop2161"
         offset="0"
         style="stop-color:#e2d69a;stop-opacity:1;" />
      <stop
         id="stop2163"
         offset="1"
         style="stop-color:#e2d69a;stop-opacity:0;" />
    </linearGradient>
    <linearGradient
       id="linearGradient2151"
       inkscape:collect="always">
      <stop
         id="stop2153"
         offset="0"
         style="stop-color:#e2d69a;stop-opacity:1;" />
      <stop
         id="stop2155"
         offset="1"
         style="stop-color:#e2d69a;stop-opacity:0;" />
    </linearGradient>
    <linearGradient
       id="linearGradient2143"
       inkscape:collect="always">
      <stop
         id="stop2145"
         offset="0"
         style="stop-color:#e2d69a;stop-opacity:1;" />
      <stop
         id="stop2147"
         offset="1"
         style="stop-color:#e2d69a;stop-opacity:0;" />
    </linearGradient>
    <linearGradient
       id="linearGradient2102">
      <stop
         id="stop2104"
         offset="0.0000000"
         style="stop-color:#ffffff;stop-opacity:1.0000000;" />
      <stop
         id="stop2106"
         offset="1.0000000"
         style="stop-color:#fff9cb;stop-opacity:1.0000000;" />
    </linearGradient>
    <radialGradient
       gradientUnits="userSpaceOnUse"
       r="23.979103"
       fy="41.016346"
       fx="59.533051"
       cy="41.016346"
       cx="59.533051"
       gradientTransform="matrix(1.018614,0.000000,0.000000,1.175153,-2.564909,-12.69344)"
       id="radialGradient2108"
       xlink:href="#linearGradient2102"
       inkscape:collect="always" />
    <linearGradient
       gradientUnits="userSpaceOnUse"
       y2="57.915157"
       x2="45.422386"
       y1="101.25412"
       x1="117.62192"
       gradientTransform="matrix(0.961851,0.000000,0.000000,1.244502,-2.564909,-12.69344)"
       id="linearGradient2149"
       xlink:href="#linearGradient2143"
       inkscape:collect="always" />
    <linearGradient
       gradientUnits="userSpaceOnUse"
       y2="109.07136"
       x2="34.318291"
       y1="123.61910"
       x1="33.955845"
       gradientTransform="matrix(2.480400,0.000000,0.000000,0.482594,-2.564909,-12.69344)"
       id="linearGradient2157"
       xlink:href="#linearGradient2151"
       inkscape:collect="always" />
    <linearGradient
       gradientUnits="userSpaceOnUse"
       y2="216.55809"
       x2="25.965815"
       y1="197.15486"
       x1="25.511381"
       gradientTransform="matrix(2.491434,0.000000,0.000000,0.480456,-2.564909,-12.69344)"
       id="linearGradient2165"
       xlink:href="#linearGradient2159"
       inkscape:collect="always" />
    <linearGradient
       y2="216.55809"
       x2="25.40369"
       y1="197.88359"
       x1="26.169897"
       gradientTransform="matrix(2.653732,0,0,0.511754,-11.03401,-15.61764)"
       gradientUnits="userSpaceOnUse"
       id="linearGradient2195"
       xlink:href="#linearGradient2159"
       inkscape:collect="always" />
    <linearGradient
       y2="54.539116"
       x2="59.05452"
       y1="100.12878"
       x1="124.90214"
       gradientTransform="matrix(1.024508,0,0,1.325572,-9.847619,-15.61764)"
       gradientUnits="userSpaceOnUse"
       id="linearGradient2197"
       xlink:href="#linearGradient2143"
       inkscape:collect="always" />
    <radialGradient
       r="23.979103"
       fy="41.016346"
       fx="59.533051"
       cy="41.016346"
       cx="59.533051"
       gradientTransform="matrix(1.0410274,0,0,1.2119417,-6.3789076,-12.491909)"
       gradientUnits="userSpaceOnUse"
       id="radialGradient2199"
       xlink:href="#linearGradient2102"
       inkscape:collect="always" />
    <linearGradient
       gradientUnits="userSpaceOnUse"
       y2="62.756611"
       x2="83.690826"
       y1="91.417862"
       x1="57.253536"
       gradientTransform="matrix(1.111992,0.000000,0.000000,0.899287,4.358725,0.198124)"
       id="linearGradient2246"
       xlink:href="#linearGradient2143"
       inkscape:collect="always" />
    <linearGradient
       gradientUnits="userSpaceOnUse"
       y2="75.312431"
       x2="48.773438"
       y1="102.08480"
       x1="73.718369"
       gradientTransform="matrix(1.123973,0.000000,0.000000,0.889701,-3.566229,-0.396248)"
       id="linearGradient2368"
       xlink:href="#linearGradient2143"
       inkscape:collect="always" />
    <linearGradient
       gradientUnits="userSpaceOnUse"
       y2="23.752619"
       x2="119.33279"
       y1="28.370682"
       x1="123.42982"
       gradientTransform="matrix(1.061264,0.000000,0.000000,0.942273,-3.764353,0.000000)"
       id="linearGradient2423"
       xlink:href="#linearGradient2417"
       inkscape:collect="always" />
    <linearGradient
       gradientUnits="userSpaceOnUse"
       y2="143.28290"
       x2="13.598644"
       y1="149.34575"
       x1="11.161633"
       gradientTransform="matrix(1.336366,0.000000,0.000000,0.748298,-2.377486,0.000000)"
       id="linearGradient2431"
       xlink:href="#linearGradient2425"
       inkscape:collect="always" />
    <linearGradient
       gradientUnits="userSpaceOnUse"
       y2="18.687828"
       x2="34.465382"
       y1="21.793919"
       x1="39.312981"
       gradientTransform="matrix(0.828282,0.000000,0.000000,1.207319,3.566229,0.000000)"
       id="linearGradient2433"
       xlink:href="#linearGradient2401"
       inkscape:collect="always" />
    <linearGradient
       gradientUnits="userSpaceOnUse"
       y2="101.68504"
       x2="144.40460"
       y1="106.59991"
       x1="146.70421"
       gradientTransform="matrix(0.937303,0.000000,0.000000,1.066891,3.368105,-0.198124)"
       id="linearGradient2435"
       xlink:href="#linearGradient2409"
       inkscape:collect="always" />
    <linearGradient
       y2="75.312431"
       x2="48.773438"
       y1="102.08480"
       x1="73.718369"
       gradientTransform="matrix(1.123973,0.000000,0.000000,0.889701,-3.566229,-0.396248)"
       gradientUnits="userSpaceOnUse"
       id="linearGradient2461"
       xlink:href="#linearGradient2143"
       inkscape:collect="always" />
    <linearGradient
       y2="143.28290"
       x2="13.598644"
       y1="149.34575"
       x1="11.161633"
       gradientTransform="matrix(1.336366,0.000000,0.000000,0.748298,-2.377486,-4.553650e-18)"
       gradientUnits="userSpaceOnUse"
       id="linearGradient2463"
       xlink:href="#linearGradient2425"
       inkscape:collect="always" />
    <linearGradient
       y2="23.752619"
       x2="119.33279"
       y1="28.370682"
       x1="123.42982"
       gradientTransform="matrix(1.061264,0.000000,0.000000,0.942273,-3.764353,-4.553650e-18)"
       gradientUnits="userSpaceOnUse"
       id="linearGradient2465"
       xlink:href="#linearGradient2417"
       inkscape:collect="always" />
    <linearGradient
       y2="62.756611"
       x2="83.690826"
       y1="91.417862"
       x1="57.253536"
       gradientTransform="matrix(1.111992,0.000000,0.000000,0.899287,4.358725,0.198124)"
       gradientUnits="userSpaceOnUse"
       id="linearGradient2467"
       xlink:href="#linearGradient2143"
       inkscape:collect="always" />
    <linearGradient
       y2="18.687828"
       x2="34.465382"
       y1="21.793919"
       x1="39.312981"
       gradientTransform="matrix(0.828282,0.000000,0.000000,1.207319,3.566229,-4.553650e-18)"
       gradientUnits="userSpaceOnUse"
       id="linearGradient2469"
       xlink:href="#linearGradient2401"
       inkscape:collect="always" />
    <linearGradient
       y2="101.68504"
       x2="144.40460"
       y1="106.59991"
       x1="146.70421"
       gradientTransform="matrix(0.937303,0.000000,0.000000,1.066891,3.368105,-0.198124)"
       gradientUnits="userSpaceOnUse"
       id="linearGradient2471"
       xlink:href="#linearGradient2409"
       inkscape:collect="always" />
    <linearGradient
       inkscape:collect="always"
       xlink:href="#linearGradient2143"
       id="linearGradient6824"
       gradientUnits="userSpaceOnUse"
       gradientTransform="matrix(1.184429,0,0,0.957868,-0.333397,-0.422559)"
       x1="57.253536"
       y1="91.417862"
       x2="83.690826"
       y2="62.756611" />
    <filter
       inkscape:collect="always"
       x="-0.20175059"
       width="1.4035012"
       y="-0.13222677"
       height="1.2644535"
       id="filter6911">
      <feGaussianBlur
         inkscape:collect="always"
         stdDeviation="0.55892333"
         id="feGaussianBlur6913" />
    </filter>
    <linearGradient
       inkscape:collect="always"
       xlink:href="#linearGradient2143"
       id="linearGradient6936"
       gradientUnits="userSpaceOnUse"
       gradientTransform="matrix(1.197191,0,0,0.947658,-8.774598,-1.055649)"
       x1="73.718369"
       y1="102.08480"
       x2="48.773438"
       y2="75.312431" />
    <filter
       inkscape:collect="always"
       id="filter7059">
      <feGaussianBlur
         inkscape:collect="always"
         stdDeviation="0.33353016"
         id="feGaussianBlur7061" />
    </filter>
    <filter
       inkscape:collect="always"
       x="-0.16682375"
       width="1.3336475"
       y="-0.14656073"
       height="1.2931215"
       id="filter7123">
      <feGaussianBlur
         inkscape:collect="always"
         stdDeviation="0.67822314"
         id="feGaussianBlur7125" />
    </filter>
    <filter
       inkscape:collect="always"
       x="-0.14488699"
       width="1.289774"
       y="-0.25874989"
       height="1.5174998"
       id="filter7259">
      <feGaussianBlur
         inkscape:collect="always"
         stdDeviation="0.7703497"
         id="feGaussianBlur7261" />
    </filter>
    <filter
       inkscape:collect="always"
       id="filter7339">
      <feGaussianBlur
         inkscape:collect="always"
         stdDeviation="1.2954102"
         id="feGaussianBlur7341" />
    </filter>
    <filter
       inkscape:collect="always"
       id="filter7347">
      <feGaussianBlur
         inkscape:collect="always"
         stdDeviation="1.2736065"
         id="feGaussianBlur7349" />
    </filter>
    <filter
       inkscape:collect="always"
       x="-0.03994204"
       width="1.0798841"
       y="-0.20529119"
       height="1.4105824"
       id="filter7483">
      <feGaussianBlur
         inkscape:collect="always"
         stdDeviation="0.81983877"
         id="feGaussianBlur7485" />
    </filter>
    <filter
       inkscape:collect="always"
       id="filter7492">
      <feGaussianBlur
         inkscape:collect="always"
         stdDeviation="0.23371351"
         id="feGaussianBlur7494" />
    </filter>
    <filter
       inkscape:collect="always"
       id="filter7520">
      <feGaussianBlur
         inkscape:collect="always"
         stdDeviation="1.1080705"
         id="feGaussianBlur7522" />
    </filter>
    <filter
       inkscape:collect="always"
       id="filter7544">
      <feGaussianBlur
         inkscape:collect="always"
         stdDeviation="1.1538102"
         id="feGaussianBlur7546" />
    </filter>
    <filter
       inkscape:collect="always"
       id="filter7584">
      <feGaussianBlur
         inkscape:collect="always"
         stdDeviation="0.088868631"
         id="feGaussianBlur7586" />
    </filter>
    <filter
       inkscape:collect="always"
       id="filter7592">
      <feGaussianBlur
         inkscape:collect="always"
         stdDeviation="0.10024103"
         id="feGaussianBlur7594" />
    </filter>
    <filter
       inkscape:collect="always"
       id="filter7732">
      <feGaussianBlur
         inkscape:collect="always"
         stdDeviation="0.75431233"
         id="feGaussianBlur7734" />
    </filter>
    <filter
       inkscape:collect="always"
       id="filter7736">
      <feGaussianBlur
         inkscape:collect="always"
         stdDeviation="0.88294639"
         id="feGaussianBlur7738" />
    </filter>
    <filter
       inkscape:collect="always"
       id="filter7857">
      <feGaussianBlur
         inkscape:collect="always"
         stdDeviation="0.80126868"
         id="feGaussianBlur7859" />
    </filter>
    <filter
       inkscape:collect="always"
       id="filter7861">
      <feGaussianBlur
         inkscape:collect="always"
         stdDeviation="0.32300348"
         id="feGaussianBlur7863" />
    </filter>
    <filter
       inkscape:collect="always"
       x="-0.20510258"
       width="1.4102052"
       y="-0.28920756"
       height="1.5784151"
       id="filter8001">
      <feGaussianBlur
         inkscape:collect="always"
         stdDeviation="0.65810696"
         id="feGaussianBlur8003" />
    </filter>
    <radialGradient
       inkscape:collect="always"
       xlink:href="#linearGradient2102"
       id="radialGradient8019"
       gradientUnits="userSpaceOnUse"
       gradientTransform="matrix(1.084968,0,0,1.251705,-10.0343,-15.44748)"
       cx="59.533051"
       cy="41.016346"
       fx="59.533051"
       fy="41.016346"
       r="23.979103" />
    <filter
       inkscape:collect="always"
       id="filter8057">
      <feGaussianBlur
         inkscape:collect="always"
         stdDeviation="3.407444"
         id="feGaussianBlur8059" />
    </filter>
    <filter
       inkscape:collect="always"
       id="filter8075">
      <feGaussianBlur
         inkscape:collect="always"
         stdDeviation="3.5019231"
         id="feGaussianBlur8077" />
    </filter>
    <filter
       inkscape:collect="always"
       id="filter8091">
      <feGaussianBlur
         inkscape:collect="always"
         stdDeviation="4.9049327"
         id="feGaussianBlur8093" />
    </filter>
    <filter
       inkscape:collect="always"
       id="filter8095">
      <feGaussianBlur
         inkscape:collect="always"
         stdDeviation="4.9049327"
         id="feGaussianBlur8097" />
    </filter>
  </defs>
  <sodipodi:namedview
     id="base"
     pagecolor="#ffffff"
     bordercolor="#666666"
     borderopacity="1.0"
     inkscape:pageopacity="0.0"
     inkscape:pageshadow="2"
     inkscape:zoom="1.8960736"
     inkscape:cx="212.9013"
     inkscape:cy="109.19535"
     inkscape:document-units="px"
     inkscape:current-layer="layer3"
     inkscape:window-width="1280"
     inkscape:window-height="949"
     inkscape:window-x="0"
     inkscape:window-y="25" />
  <metadata
     id="metadata4">
    <rdf:RDF>
      <cc:Work
         rdf:about="">
        <dc:format>image/svg+xml</dc:format>
        <dc:type
           rdf:resource="http://purl.org/dc/dcmitype/StillImage" />
      </cc:Work>
    </rdf:RDF>
  </metadata>
  <g
     inkscape:groupmode="layer"
     id="layer4"
     inkscape:label="shadow"
     style="display:inline">
    <g
       id="g8099"
       transform="matrix(0.9595006,0,0,0.9682327,4.5141246,3.9968)">
      <path
         transform="translate(2,0)"
         d="M 81.46875,24.03125 C 69.294327,23.768886 56.959467,27.224151 47.78125,34.6875 C 38.603033,42.150849 32.773197,53.782935 33.84375,68.875 C 34.370811,76.214059 35.362172,81.199576 36.71875,84.84375 C 38.075328,88.487924 39.884195,90.802622 41.59375,92.375 C 43.303305,93.947378 44.699534,94.811383 45.625,95.8125 C 46.444532,96.699023 47.102044,97.897892 47.59375,100.15625 C 44.206535,105.7882 42.392582,110.63377 42.09375,114.625 C 41.773654,118.90024 43.177712,122.50184 45.90625,124.4375 C 48.634788,126.37316 52.227467,126.40991 55.46875,125.0625 C 56.98316,124.43296 58.444909,123.43448 59.8125,122.21875 C 60.278893,123.85244 60.88121,125.34968 61.75,126.59375 C 63.660422,129.3294 66.584722,131.00599 69.6875,131.09375 C 74.111895,131.21889 78.286437,128.27461 81.15625,123.03125 C 81.942534,124.66597 82.810279,126.09566 83.84375,127.15625 C 86.147201,129.52016 89.424069,130.24015 92.03125,129.28125 C 94.638431,128.32235 96.560996,126.19374 97.84375,123.65625 C 98.223353,122.90533 98.427342,122.04711 98.6875,121.21875 C 100.85941,123.25273 103.03171,124.86069 105.1875,125.625 C 108.69066,126.867 112.42602,126.22692 114.625,123.75 C 116.82398,121.27308 117.28161,117.61207 116.28125,113.65625 C 115.37996,110.0922 113.08518,106.12886 109.5625,102 C 110.14956,100.08634 110.81981,99.078596 111.625,98.4375 C 112.59529,97.66495 114.18251,97.067621 116.1875,95.6875 C 118.19249,94.307379 120.33644,92.075393 122.0625,88.28125 C 123.78856,84.487107 125.23113,79.108682 126.3125,71 C 128.32211,55.930777 123.19164,44.03081 114.46875,36.15625 C 105.74586,28.28169 93.642802,24.293606 81.46875,24.03125 z "
         id="path8021"
         style="fill:#757575;fill-opacity:1;fill-rule:evenodd;stroke:none;stroke-width:2.99999976;stroke-linecap:butt;stroke-linejoin:miter;stroke-miterlimit:5;stroke-opacity:1;display:inline;filter:url(#filter8075)"
         inkscape:original="M 81.40625 26.71875 C 58.155285 26.217681 34.466986 40.0272 36.5 68.6875 C 38.562452 97.406113 48.180836 87.29058 50.4375 100.46875 C 35.48147 124.15391 53.673376 129.7904 61.6875 115.71875 C 61.136273 131.92813 77.254348 133.56499 81.34375 115.09375 C 85.708 135.8107 97.909765 125.48893 96.78125 115.25 C 109.84172 132.7519 122.71928 119.97516 106.59375 102.46875 C 109.63737 89.122375 119.41497 102.45971 123.65625 70.65625 C 127.47488 42.021951 104.65721 27.219819 81.40625 26.71875 z "
         inkscape:radius="2.6757553"
         sodipodi:type="inkscape:offset" />
      <path
         style="fill:#757575;fill-opacity:1;fill-rule:evenodd;stroke:none;stroke-width:2.99999833;stroke-linecap:butt;stroke-linejoin:miter;stroke-miterlimit:4;stroke-opacity:1;display:inline;filter:url(#filter8095)"
         d="M 121.50029,28.314094 C 116.25789,16.636655 134.82481,10.608197 136.03071,24.087975 C 141.16602,19.501114 151.93607,17.179257 157.19393,27.469223 C 162.80812,38.456587 144.44946,37.236294 134.26788,39.65183 C 126.04997,45.267571 37.116596,115.56338 26.971979,121.31056 C 28.668361,128.28846 28.99376,139.31642 17.823646,138.6841 C 6.8759262,138.08935 7.9592863,128.65115 10.268273,121.65563 C -5.9762579,117.37283 4.7870665,97.26409 20.900041,110.48345 C 24.919231,107.6603 120.22737,36.178284 121.50029,28.314094 z "
         id="path8065"
         sodipodi:nodetypes="cczcccccc" />
      <path
         style="fill:#757575;fill-opacity:1;fill-rule:evenodd;stroke:none;stroke-width:2.99999833;stroke-linecap:butt;stroke-linejoin:miter;stroke-miterlimit:4;stroke-opacity:1;display:inline;filter:url(#filter8091)"
         d="M 36.361115,28.459597 C 42.781847,9.2407813 18.794557,5.8046711 20.181008,19.991454 C 15.045706,15.404593 5.350714,19.874035 3.2598119,29.264404 C 1.1806403,38.602091 13.411928,37.3818 23.593511,39.797335 C 31.811429,45.413076 120.7448,115.70888 130.88941,121.45607 C 129.19303,128.43396 131.93132,144.41095 143.10144,143.77865 C 154.04915,143.18391 152.2588,129.975 149.9498,122.97948 C 157.94595,116.34001 152.36733,99.530608 136.96136,110.62895 C 132.94216,107.80581 37.634021,36.323789 36.361115,28.459597 z "
         id="path8071"
         sodipodi:nodetypes="cczcccccc" />
    </g>
  </g>
  <g
     inkscape:groupmode="layer"
     id="layer3"
     inkscape:label="bone01"
     style="display:inline">
    <path
       style="fill:#fff9cb;fill-opacity:1;fill-rule:evenodd;stroke:#5c5842;stroke-width:2.99999833;stroke-linecap:butt;stroke-linejoin:miter;stroke-miterlimit:4;stroke-opacity:1"
       d="M 119.82861,29.879477 C 114.79852,18.572999 132.6135,12.736049 133.77056,25.787611 C 138.69789,21.346462 149.03176,19.098364 154.07668,29.061446 C 159.4635,39.699771 141.84835,38.518243 132.07912,40.857044 C 124.19403,46.294388 38.862405,114.35709 29.128639,119.9217 C 30.756319,126.67793 31.068539,137.35556 20.350808,136.74333 C 9.8464646,136.16747 10.885949,127.0291 13.101423,120.2558 C -2.4852137,116.10906 7.8422025,96.639118 23.302611,109.43853 C 27.159026,106.70507 118.60724,37.493843 119.82861,29.879477 z "
       id="path6821"
       sodipodi:nodetypes="cczcccccc" />
    <path
       sodipodi:nodetypes="ccccccccccc"
       id="path2347"
       d="M 148.99956,23.475902 C 146.36412,27.641058 143.23592,34.55429 133.05572,29.800183 C 132.12592,30.705278 124.58294,36.598618 121.17272,39.386461 C 119.7989,38.689542 118.35648,37.726328 116.88541,37.780034 C 106.06194,48.633875 51.781335,90.704756 44.313287,95.513274 C 44.051218,97.094647 45.687828,97.530109 46.29457,98.802021 C 38.892079,104.54351 21.476555,117.89263 20.649949,118.47325 C 19.383021,126.15366 19.753307,131.07277 13.260527,134.55024 C 27.601639,140.37147 25.6749,127.48158 23.978518,120.50368 C 26.84598,118.87919 127.58529,40.834641 133.45514,36.823463 C 143.63673,34.407927 166.59737,36.550822 148.99956,23.475902 z "
       style="fill:url(#linearGradient6936);fill-opacity:1;fill-rule:evenodd;stroke:none;stroke-width:2.99999952;stroke-linecap:butt;stroke-linejoin:miter;stroke-miterlimit:4;stroke-opacity:1;filter:url(#filter7347)"
       transform="matrix(0.9595006,0,0,0.9682327,3.2490093,2.4648458)" />
    <path
       sodipodi:nodetypes="ccc"
       id="path2387"
       d="M 131.8749,21.066619 C 134.21057,23.339396 134.97295,34.422993 123.36306,27.788664 C 130.24008,26.084805 130.64122,23.807274 131.8749,21.066619 z "
       style="fill:#efe6b0;fill-opacity:1;fill-rule:evenodd;stroke:none;stroke-width:1px;stroke-linecap:butt;stroke-linejoin:miter;stroke-opacity:1;filter:url(#filter7059)"
       transform="matrix(0.9595006,0,0,0.9682327,3.2490093,2.4648458)" />
    <path
       style="fill:#e7dca2;fill-opacity:1;fill-rule:evenodd;stroke:none;stroke-width:1px;stroke-linecap:butt;stroke-linejoin:miter;stroke-opacity:1;filter:url(#filter7259)"
       d="M 6.688148,112.61918 C 9.1280486,114.15847 11.200294,117.10967 18.827235,115.79878 C 12.264591,125.10133 3.6727138,115.50388 6.688148,112.61918 z "
       id="path2370"
       sodipodi:nodetypes="ccc"
       transform="matrix(0.9595006,0,0,0.9682327,3.2490093,2.4648458)" />
  </g>
  <g
     style="display:inline"
     inkscape:label="bone02"
     inkscape:groupmode="layer"
     id="layer1">
    <path
       style="fill:#fff9cb;fill-opacity:1;fill-rule:evenodd;stroke:#5c5842;stroke-width:2.99999833;stroke-linecap:butt;stroke-linejoin:miter;stroke-miterlimit:4;stroke-opacity:1"
       d="M 38.137521,30.020358 C 44.298217,11.412072 21.282398,8.0851182 22.612699,21.821225 C 17.685373,17.380076 8.3830226,21.707536 6.3768008,30.799599 C 4.3818344,39.840653 16.117762,38.659127 25.886997,40.997927 C 33.772095,46.435271 119.10372,114.49797 128.83748,120.06258 C 127.2098,126.81881 129.83719,142.28825 140.55493,141.67604 C 151.05926,141.10019 149.34142,128.31089 147.12593,121.5376 C 154.79824,115.10905 149.44555,98.833635 134.66352,109.57941 C 130.80709,106.84596 39.358875,37.634726 38.137521,30.020358 z "
       id="path6828"
       sodipodi:nodetypes="cczcccccc" />
    <path
       sodipodi:nodetypes="cccccccccccc"
       id="path2179"
       d="M 7.3223112,25.540277 C 0.18931032,38.125446 16.006915,35.236512 23.698869,37.389982 C 31.916787,43.005721 123.63003,114.75715 133.77463,120.50434 C 132.07826,127.48223 134.6762,141.7447 143.09463,141.37447 C 150.63548,140.77973 149.23147,130.19599 146.92248,123.20048 C 145.09115,126.12641 141.36457,125.02072 134.60677,115.67791 C 133.6795,115.02659 122.28639,106.52124 113.49833,100.11015 C 114.40275,98.409167 114.75537,97.404909 114.41883,96.3019 C 101.74877,87.931197 49.027244,44.174684 43.41481,39.327216 C 42.684148,38.503088 40.082028,41.329248 38.541145,42.557016 C 30.798034,36.053404 29.172969,34.336187 28.891437,32.596843 C 21.684734,34.212281 12.176802,31.27576 7.3223112,25.540277 z "
       style="fill:url(#linearGradient6824);fill-opacity:1;fill-rule:evenodd;stroke:none;stroke-width:2.99999952;stroke-linecap:butt;stroke-linejoin:miter;stroke-miterlimit:4;stroke-opacity:1;filter:url(#filter7339)"
       transform="matrix(0.9595006,0,0,0.9682327,3.2490093,2.4648458)" />
    <path
       sodipodi:nodetypes="cccc"
       id="path2248"
       d="M 32.244668,19.57463 C 30.39308,19.120586 29.348418,21.672192 29.00373,23.503117 C 28.182102,25.960524 25.243355,28.319645 30.331199,29.661613 C 32.037856,29.874441 36.569833,22.739466 32.244668,19.57463 z "
       style="fill:#efe6b0;fill-opacity:1;fill-rule:evenodd;stroke:none;stroke-width:1px;stroke-linecap:butt;stroke-linejoin:miter;stroke-opacity:1;filter:url(#filter6911)"
       transform="matrix(0.9595006,0,0,0.9682327,3.2490093,2.4648458)" />
    <path
       style="fill:#e9dea5;fill-opacity:1;fill-rule:evenodd;stroke:none;stroke-width:1px;stroke-linecap:butt;stroke-linejoin:miter;stroke-opacity:1;filter:url(#filter7123)"
       d="M 147.19847,122.17351 C 144.02008,123.84737 140.01849,120.89328 141.81834,117.68325 C 144.69062,115.48823 147.1242,113.45961 149.99886,111.90469 C 153.05998,113.51969 149.23858,121.09911 147.19847,122.17351 z "
       id="path2330"
       sodipodi:nodetypes="cccs"
       transform="matrix(0.9595006,0,0,0.9682327,3.2490093,2.4648458)" />
    <path
       style="opacity:1;color:#000000;fill:#fffdf4;fill-opacity:1;fill-rule:evenodd;stroke:none;stroke-width:2;stroke-linecap:butt;stroke-linejoin:miter;marker:none;marker-start:none;marker-mid:none;marker-end:none;stroke-miterlimit:4;stroke-dasharray:none;stroke-dashoffset:0;stroke-opacity:1;visibility:visible;display:inline;overflow:visible;filter:url(#filter8001);enable-background:accumulate"
       d="M 15.031062,22.347113 C 13.355671,21.993059 10.903804,22.583055 10.523401,24.503888 C 10.914441,26.922713 14.100271,27.792049 16.253382,27.705433 C 20.234729,26.401305 17.324911,23.49007 15.031062,22.347113 z "
       id="path7865"
       sodipodi:nodetypes="cccc"
       transform="matrix(0.9595006,0,0,0.9682327,3.2490093,2.4648458)" />
    <path
       sodipodi:nodetypes="cccc"
       id="path8006"
       d="M 126.57737,19.182679 C 124.90198,18.828625 122.45011,19.418621 122.06971,21.339454 C 122.46075,23.758279 125.64658,24.627615 127.79969,24.540999 C 131.78103,23.236871 128.87122,20.325636 126.57737,19.182679 z "
       style="opacity:1;color:#000000;fill:#fffdf4;fill-opacity:1;fill-rule:evenodd;stroke:none;stroke-width:2;stroke-linecap:butt;stroke-linejoin:miter;marker:none;marker-start:none;marker-mid:none;marker-end:none;stroke-miterlimit:4;stroke-dasharray:none;stroke-dashoffset:0;stroke-opacity:1;visibility:visible;display:inline;overflow:visible;filter:url(#filter8001);enable-background:accumulate"
       transform="matrix(0.2806644,-0.7444199,0.8309133,0.2514489,71.369354,112.48492)" />
    <path
       transform="matrix(0.5973496,-0.7444199,1.768467,0.2514489,25.852922,117.08078)"
       style="opacity:1;color:#000000;fill:#fffdf4;fill-opacity:1;fill-rule:evenodd;stroke:none;stroke-width:2;stroke-linecap:butt;stroke-linejoin:miter;marker:none;marker-start:none;marker-mid:none;marker-end:none;stroke-miterlimit:4;stroke-dasharray:none;stroke-dashoffset:0;stroke-opacity:1;visibility:visible;display:inline;overflow:visible;filter:url(#filter8001);enable-background:accumulate"
       d="M 126.57737,19.182679 C 124.90198,18.828625 122.45011,19.418621 122.06971,21.339454 C 122.46075,23.758279 125.64658,24.627615 127.79969,24.540999 C 131.78103,23.236871 128.87122,20.325636 126.57737,19.182679 z "
       id="path8008"
       sodipodi:nodetypes="cccc" />
    <path
       transform="matrix(0.2806644,-0.7444199,0.8309133,0.2514489,86.550737,199.80631)"
       style="opacity:1;color:#000000;fill:#fffdf4;fill-opacity:1;fill-rule:evenodd;stroke:none;stroke-width:2;stroke-linecap:butt;stroke-linejoin:miter;marker:none;marker-start:none;marker-mid:none;marker-end:none;stroke-miterlimit:4;stroke-dasharray:none;stroke-dashoffset:0;stroke-opacity:1;visibility:visible;display:inline;overflow:visible;filter:url(#filter8001);enable-background:accumulate"
       d="M 126.57737,19.182679 C 124.90198,18.828625 122.45011,19.418621 122.06971,21.339454 C 122.46075,23.758279 125.64658,24.627615 127.79969,24.540999 C 131.78103,23.236871 128.87122,20.325636 126.57737,19.182679 z "
       id="path8010"
       sodipodi:nodetypes="cccc" />
    <path
       sodipodi:nodetypes="cccc"
       id="path8012"
       d="M 12.921439,109.10535 C 11.246048,108.7513 8.7941812,109.34129 8.4137782,111.26213 C 8.8048182,113.68095 11.990648,114.55029 14.143759,114.46367 C 18.125106,113.15954 15.215288,110.24831 12.921439,109.10535 z "
       style="opacity:1;color:#000000;fill:#fffdf4;fill-opacity:1;fill-rule:evenodd;stroke:none;stroke-width:2;stroke-linecap:butt;stroke-linejoin:miter;marker:none;marker-start:none;marker-mid:none;marker-end:none;stroke-miterlimit:4;stroke-dasharray:none;stroke-dashoffset:0;stroke-opacity:1;visibility:visible;display:inline;overflow:visible;filter:url(#filter8001);enable-background:accumulate"
       transform="matrix(0.9595006,0,0,0.9682327,3.2490093,2.4648458)" />
  </g>
  <g
     style="display:inline"
     inkscape:label="skull"
     id="layer2"
     inkscape:groupmode="layer">
    <path
       style="fill:url(#radialGradient2199);fill-opacity:1;fill-rule:evenodd;stroke:#5c5842;stroke-width:2.99999976;stroke-linecap:butt;stroke-linejoin:miter;stroke-miterlimit:5;stroke-opacity:1"
       d="M 121.89154,70.88782 C 117.82203,101.68097 108.44298,88.755133 105.52263,101.67753 C 120.99508,118.62781 108.65309,131.01301 96.121556,114.06709 C 97.204365,123.98076 85.47189,133.95176 81.28439,113.89293 C 77.360606,131.77739 61.906561,130.19206 62.435463,114.49761 C 54.745908,128.12224 37.285675,122.6807 51.635995,99.747959 C 49.470725,86.988423 40.247857,96.778689 38.268933,68.972389 C 34.367577,13.47271 129.21949,15.438491 121.89154,70.88782 z "
       id="path6017"
       sodipodi:nodetypes="ccccccss" />
    <path
       style="fill:#e2d69a;fill-opacity:1;fill-rule:evenodd;stroke:none;stroke-width:3.75;stroke-linecap:round;stroke-linejoin:round;stroke-miterlimit:4;stroke-opacity:1;filter:url(#filter7544)"
       d="M 79.251663,65.149425 C 79.251663,75.991385 70.476097,84.790656 59.663344,84.790656 C 48.850594,84.790656 40.075029,75.991385 40.075029,65.149425 C 40.075029,54.307469 48.850594,45.508194 59.663344,45.508194 C 70.476097,45.508194 79.251663,54.307469 79.251663,65.149425 z "
       id="path2120"
       transform="matrix(0.9852651,0,0,0.9942316,1.7118144,0.7710289)" />
    <path
       style="fill:#000000;fill-opacity:1;fill-rule:evenodd;stroke:none;stroke-width:3.75;stroke-linecap:round;stroke-linejoin:round;stroke-miterlimit:4;stroke-opacity:1;filter:url(#filter7736)"
       d="M 78.38023,65.871365 C 78.38023,75.765359 70.587738,83.795266 60.986275,83.795266 C 51.384815,83.795266 43.592325,75.765359 43.592325,65.871365 C 43.592325,55.977372 51.384815,47.94746 60.986275,47.94746 C 70.587738,47.94746 78.38023,55.977372 78.38023,65.871365 z "
       id="path6027"
       transform="matrix(0.9595006,0,0,0.9682327,3.2490093,2.4648458)" />
    <path
       sodipodi:nodetypes="cccccssccccccccccccccccc"
       id="path2110"
       d="M 96.52774,33.473074 C 96.319963,34.935053 95.193713,42.261802 94.734029,45.095397 C 102.25871,43.579798 107.3322,46.084317 108.78544,49.210106 C 103.33128,48.295703 95.905921,48.766231 93.290453,51.523688 C 92.099706,56.386956 88.889773,68.898312 86.883467,74.588477 C 93.59698,81.291893 94.172515,81.660852 84.592442,78.869252 C 82.414612,78.23464 81.85314,80.800363 82.330126,82.224679 C 83.389874,85.389167 86.659318,89.332959 87.647019,93.036354 C 90.123515,97.138907 84.172742,98.182274 80.80545,95.5577 C 77.790287,95.69081 72.89857,100.53494 73.002607,94.970497 C 73.219343,92.566958 74.003991,90.607993 72.010536,92.337373 C 63.885714,100.37205 60.685601,95.383002 52.340315,96.101689 C 51.569113,102.60507 57.479443,101.74646 56.624509,105.33841 C 56.543644,110.90916 52.033683,115.12606 50.65421,120.35037 C 53.748543,121.91328 60.084186,112.39198 62.866407,108.04027 C 66.690726,111.74369 71.96072,118.56614 72.455807,123.82476 C 77.369457,123.29878 79.229109,111.60933 80.222574,106.60008 C 84.912241,109.06976 91.367106,117.49412 91.518454,122.36325 C 94.360799,118.39634 94.498058,112.90104 94.306279,108.56585 C 100.08843,108.98184 109.16267,115.45868 111.0543,117.51244 C 112.65918,114.19659 107.4046,106.73153 103.62913,102.6298 C 104.72909,97.970067 107.13215,93.254115 111.71446,91.201487 C 117.63474,87.739243 118.58589,80.316841 119.75424,74.175441 C 122.38303,61.391471 119.50591,42.916386 96.52774,33.473074 z "
       style="fill:url(#linearGradient2197);fill-opacity:1;fill-rule:evenodd;stroke:none;stroke-width:3;stroke-linecap:butt;stroke-linejoin:miter;stroke-miterlimit:5;stroke-opacity:1;filter:url(#filter7857)"
       transform="matrix(0.9595006,0,0,0.9682327,3.2490093,2.4648458)" />
    <path
       style="fill:#e2d69a;fill-opacity:1;fill-rule:evenodd;stroke:none;stroke-width:3.75;stroke-linecap:round;stroke-linejoin:round;stroke-miterlimit:4;stroke-opacity:1;filter:url(#filter7520)"
       d="M 116.81293,66.242967 C 116.81293,75.103878 109.42779,82.295342 100.32831,82.295342 C 91.228822,82.295342 83.843719,75.103878 83.843719,66.242967 C 83.843719,57.382055 91.228822,50.190592 100.32831,50.190592 C 109.42779,50.190592 116.81293,57.382055 116.81293,66.242967 z "
       id="path2167"
       transform="matrix(0.9910253,0,0,1.0000442,8.6190421e-2,0.3575523)" />
    <path
       style="fill:#000000;fill-opacity:1;fill-rule:evenodd;stroke:none;stroke-width:3.75;stroke-linecap:round;stroke-linejoin:round;stroke-miterlimit:4;stroke-opacity:1;filter:url(#filter7732)"
       d="M 117.01974,66.181649 C 117.01974,74.560592 110.30275,81.360893 102.02649,81.360893 C 93.750221,81.360893 87.033244,74.560592 87.033244,66.181649 C 87.033244,57.802704 93.750221,51.002403 102.02649,51.002403 C 110.30275,51.002403 117.01974,57.802704 117.01974,66.181649 z "
       id="path6788"
       transform="matrix(0.9595006,0,0,0.9682327,3.2490093,2.4648458)" />
    <path
       style="fill:#000000;fill-opacity:1;fill-rule:evenodd;stroke:none;stroke-width:1px;stroke-linecap:butt;stroke-linejoin:miter;stroke-opacity:1;filter:url(#filter7861)"
       d="M 80.610794,83.403272 C 83.937507,83.67928 88.223973,95.543203 86.103537,96.128264 C 84.785837,96.49184 81.549864,95.018748 80.122889,94.91888 C 78.695914,94.819013 75.438251,96.641343 74.633768,96.307006 C 71.589737,95.041904 77.400149,83.136896 80.610794,83.403272 z "
       id="path6790"
       sodipodi:nodetypes="csssz"
       transform="matrix(0.9595006,0,0,0.9682327,3.2490093,2.4648458)" />
    <path
       sodipodi:nodetypes="ccc"
       id="path2128"
       d="M 43.670537,81.594994 C 56.543499,89.509517 59.622175,89.690005 73.157227,84.399021 C 67.644196,114.11936 52.992974,102.74725 43.670537,81.594994 z "
       style="fill:url(#linearGradient2195);fill-opacity:1;fill-rule:evenodd;stroke:none;stroke-width:1px;stroke-linecap:butt;stroke-linejoin:miter;stroke-opacity:1;filter:url(#filter7492)"
       transform="matrix(0.9595006,0,0,0.9682327,3.2490093,2.4648458)" />
    <path
       sodipodi:nodetypes="ccccc"
       id="path2137"
       d="M 82.697636,43.489431 C 78.199023,43.738177 69.491765,35.251648 55.810273,42.316017 C 63.102581,43.54557 70.557613,40.305819 82.675886,49.085015 C 85.880448,47.600706 94.6831,43.85206 105.07198,44.804192 C 95.305026,39.225909 87.196248,43.240685 82.697636,43.489431 z "
       style="fill:#e3d79c;fill-opacity:1;fill-rule:evenodd;stroke:none;stroke-width:1px;stroke-linecap:butt;stroke-linejoin:miter;stroke-opacity:1;filter:url(#filter7483)"
       transform="matrix(0.9595006,0,0,0.9682327,3.2490093,2.4648458)" />
    <path
       sodipodi:nodetypes="cc"
       id="path2169"
       d="M 44.668526,81.843905 C 57.104569,92.970584 65.448199,88.770462 72.794548,84.992339"
       style="opacity:0.98999999;fill:none;fill-opacity:0.75;fill-rule:evenodd;stroke:#b6ae84;stroke-width:2.48999667;stroke-linecap:round;stroke-linejoin:miter;stroke-miterlimit:4;stroke-opacity:1;filter:url(#filter7592)"
       transform="matrix(0.9595006,0,0,0.9682327,3.2490093,2.4648458)" />
    <path
       sodipodi:nodetypes="cc"
       id="path2175"
       d="M 114.90341,81.473655 C 102.30965,91.338752 97.691956,87.350733 90.34561,83.57261"
       style="opacity:0.98999999;fill:none;fill-opacity:0.75;fill-rule:evenodd;stroke:#b6ae84;stroke-width:2.48999667;stroke-linecap:round;stroke-linejoin:miter;stroke-miterlimit:4;stroke-opacity:1;filter:url(#filter7584)"
       transform="matrix(0.9595006,0,0,0.9682327,3.2490093,2.4648458)" />
    <path
       transform="matrix(0.3259677,-0.7799771,1.785667,-0.3248814,9.1702922,156.18275)"
       style="opacity:1;color:#000000;fill:#fffdf4;fill-opacity:1;fill-rule:evenodd;stroke:none;stroke-width:2;stroke-linecap:butt;stroke-linejoin:miter;marker:none;marker-start:none;marker-mid:none;marker-end:none;stroke-miterlimit:4;stroke-dasharray:none;stroke-dashoffset:0;stroke-opacity:1;visibility:visible;display:inline;overflow:visible;filter:url(#filter8001);enable-background:accumulate"
       d="M 126.57737,19.182679 C 124.90198,18.828625 122.45011,19.418621 122.06971,21.339454 C 122.46075,23.758279 125.64658,24.627615 127.79969,24.540999 C 131.78103,23.236871 128.87122,20.325636 126.57737,19.182679 z "
       id="path8014"
       sodipodi:nodetypes="cccc" />
  </g>
</svg>
