<?xml version="1.0" encoding="UTF-8" standalone="no"?>
<!-- Created with Inkscape (http://www.inkscape.org/) -->
<svg
   xmlns:dc="http://purl.org/dc/elements/1.1/"
   xmlns:cc="http://web.resource.org/cc/"
   xmlns:rdf="http://www.w3.org/1999/02/22-rdf-syntax-ns#"
   xmlns:svg="http://www.w3.org/2000/svg"
   xmlns="http://www.w3.org/2000/svg"
   xmlns:xlink="http://www.w3.org/1999/xlink"
   xmlns:sodipodi="http://inkscape.sourceforge.net/DTD/sodipodi-0.dtd"
   xmlns:inkscape="http://www.inkscape.org/namespaces/inkscape"
   sodipodi:docname="monster_sword.svg"
   sodipodi:docbase="/home/guitouze/Documents/2D/dungeons"
   inkscape:version="0.41"
   sodipodi:version="0.32"
   id="svg5580"
   height="128.00000pt"
   width="128.00000pt">
  <defs
     id="defs3">
    <linearGradient
       id="linearGradient5684"
       inkscape:collect="always">
      <stop
         id="stop5686"
         offset="0"
         style="stop-color:#eaf5f5;stop-opacity:1;" />
      <stop
         id="stop5688"
         offset="1"
         style="stop-color:#eaf5f5;stop-opacity:0;" />
    </linearGradient>
    <linearGradient
       id="linearGradient5670"
       inkscape:collect="always">
      <stop
         id="stop5672"
         offset="0"
         style="stop-color:#9fbebf;stop-opacity:1;" />
      <stop
         id="stop5674"
         offset="1"
         style="stop-color:#9fbebf;stop-opacity:0;" />
    </linearGradient>
    <linearGradient
       id="linearGradient5641">
      <stop
         id="stop5643"
         offset="0"
         style="stop-color:#b3d5d6;stop-opacity:1;" />
      <stop
         id="stop5645"
         offset="1.0000000"
         style="stop-color:#dcf2f3;stop-opacity:1.0000000;" />
    </linearGradient>
    <linearGradient
       id="linearGradient5633"
       inkscape:collect="always">
      <stop
         id="stop5635"
         offset="0"
         style="stop-color:#9cbabb;stop-opacity:1;" />
      <stop
         id="stop5637"
         offset="1"
         style="stop-color:#9cbabb;stop-opacity:0;" />
    </linearGradient>
    <linearGradient
       id="linearGradient5625">
      <stop
         id="stop5627"
         offset="0.0000000"
         style="stop-color:#feffff;stop-opacity:1.0000000;" />
      <stop
         id="stop5629"
         offset="1"
         style="stop-color:#d9ebec;stop-opacity:0;" />
    </linearGradient>
    <linearGradient
       gradientUnits="userSpaceOnUse"
       y2="21.470909"
       x2="222.38866"
       y1="21.470909"
       x1="185.36346"
       gradientTransform="scale(0.348933,2.865883)"
       id="linearGradient5631"
       xlink:href="#linearGradient5625"
       inkscape:collect="always" />
    <linearGradient
       gradientUnits="userSpaceOnUse"
       y2="22.730148"
       x2="251.69035"
       y1="22.730148"
       x1="212.40782"
       gradientTransform="scale(0.367981,2.717532)"
       id="linearGradient5639"
       xlink:href="#linearGradient5633"
       inkscape:collect="always" />
    <linearGradient
       gradientUnits="userSpaceOnUse"
       y2="-0.45992205"
       x2="152.37354"
       y1="28.436876"
       x1="177.26251"
       gradientTransform="scale(0.450705,2.218747)"
       id="linearGradient5647"
       xlink:href="#linearGradient5641"
       inkscape:collect="always" />
    <linearGradient
       gradientUnits="userSpaceOnUse"
       y2="36.051056"
       x2="139.92268"
       y1="29.709555"
       x1="141.32204"
       gradientTransform="scale(0.523602,1.909848)"
       id="linearGradient5676"
       xlink:href="#linearGradient5670"
       inkscape:collect="always" />
    <linearGradient
       gradientUnits="userSpaceOnUse"
       y2="55.637173"
       x2="144.50334"
       y1="45.558243"
       x1="142.89378"
       gradientTransform="scale(0.603739,1.656344)"
       id="linearGradient5690"
       xlink:href="#linearGradient5684"
       inkscape:collect="always" />
    <linearGradient
       y2="-0.45992205"
       x2="152.37354"
       y1="28.436876"
       x1="177.26251"
       gradientTransform="scale(0.450705,2.218747)"
       gradientUnits="userSpaceOnUse"
       id="linearGradient5805"
       xlink:href="#linearGradient5641"
       inkscape:collect="always" />
    <linearGradient
       y2="22.730148"
       x2="251.69035"
       y1="22.730148"
       x1="212.40782"
       gradientTransform="scale(0.367981,2.717532)"
       gradientUnits="userSpaceOnUse"
       id="linearGradient5807"
       xlink:href="#linearGradient5633"
       inkscape:collect="always" />
    <linearGradient
       y2="21.470909"
       x2="222.38866"
       y1="21.470909"
       x1="185.36346"
       gradientTransform="scale(0.348933,2.865883)"
       gradientUnits="userSpaceOnUse"
       id="linearGradient5809"
       xlink:href="#linearGradient5625"
       inkscape:collect="always" />
    <linearGradient
       y2="55.637173"
       x2="144.50334"
       y1="45.558243"
       x1="142.89378"
       gradientTransform="scale(0.603739,1.656344)"
       gradientUnits="userSpaceOnUse"
       id="linearGradient5811"
       xlink:href="#linearGradient5684"
       inkscape:collect="always" />
    <linearGradient
       y2="36.051056"
       x2="139.92268"
       y1="29.709555"
       x1="141.32204"
       gradientTransform="scale(0.523602,1.909848)"
       gradientUnits="userSpaceOnUse"
       id="linearGradient5813"
       xlink:href="#linearGradient5670"
       inkscape:collect="always" />
  </defs>
  <sodipodi:namedview
     inkscape:window-y="25"
     inkscape:window-x="0"
     inkscape:window-height="949"
     inkscape:window-width="1280"
     inkscape:current-layer="layer1"
     inkscape:document-units="px"
     inkscape:cy="131.02966"
     inkscape:cx="69.772349"
     inkscape:zoom="1.7690646"
     inkscape:pageshadow="2"
     inkscape:pageopacity="0.0"
     borderopacity="1.0"
     bordercolor="#666666"
     pagecolor="#ffffff"
     id="base" />
  <metadata
     id="metadata4">
    <rdf:RDF
       id="RDF5">
      <cc:Work
         id="Work6"
         rdf:about="">
        <dc:format
           id="format7">image/svg+xml</dc:format>
        <dc:type
           rdf:resource="http://purl.org/dc/dcmitype/StillImage"
           id="type9" />
      </cc:Work>
    </rdf:RDF>
  </metadata>
  <g
     id="layer1"
     inkscape:groupmode="layer"
     inkscape:label="Layer 1">
    <g
       transform="matrix(0.706305,0.707908,-0.707908,0.706305,71.92648,-23.92866)"
       id="g5790">
      <rect
         y="119.60181"
         x="70.599747"
         height="35.754498"
         width="15.943932"
         id="rect5604"
         style="fill:#ba582c;fill-opacity:1.0000000;fill-rule:evenodd;stroke:#61301a;stroke-width:3.0000005;stroke-linecap:round;stroke-linejoin:round;stroke-miterlimit:4.0000000;stroke-opacity:1.0000000" />
      <path
         sodipodi:nodetypes="czccccccccccccccccccccscc"
         id="rect5704"
         d="M 71.625011,118.98657 C 69.310545,117.68781 69.898156,122.06732 72.745582,122.02633 C 75.523566,121.98534 78.460089,122.33989 79.750606,123.53091 C 77.724341,125.31773 74.737733,123.67067 72.235013,124.69155 C 72.651411,126.71678 76.784279,123.96754 78.307339,125.04379 C 81.560964,126.48072 77.493939,128.82077 75.311028,128.36054 C 73.849224,128.56400 72.460908,128.67292 72.199783,130.08960 C 74.476930,130.70818 78.032239,128.62986 79.831421,130.65540 C 81.145402,133.10066 78.118036,134.98310 76.005040,133.74402 C 74.796519,132.93789 73.639301,133.20800 72.023370,134.13576 C 74.256007,134.58746 80.493841,134.19864 79.955369,137.95232 C 78.333955,140.03783 74.883234,138.33246 72.744710,138.53938 C 70.948805,139.02297 75.222069,139.43306 76.362335,139.68909 C 78.436737,139.42870 81.668444,141.82933 78.957625,143.59163 C 76.967544,144.78609 74.245372,143.23412 72.218055,144.25314 C 73.609651,145.82103 76.492456,145.67099 78.355355,145.56096 C 80.813144,145.50053 80.560788,150.68273 78.107801,150.41098 C 76.600269,150.11833 74.758727,148.45020 72.056371,149.59373 C 73.280489,150.26390 78.834921,150.99207 76.745591,153.21847 C 75.405778,153.61370 72.028907,154.46385 75.209996,154.27986 C 78.187180,154.28459 81.167664,154.28178 84.139130,154.07435 C 85.774518,152.23670 84.182654,149.59223 84.767463,147.40695 C 84.794511,142.91340 85.068190,137.43911 84.791496,132.95403 C 84.509991,128.39099 84.779552,124.45291 84.788743,119.95933 C 80.881894,120.02178 75.447840,119.90685 71.625011,118.98657 z "
         style="fill:#874325;fill-opacity:1.0000000;fill-rule:evenodd;stroke:none;stroke-width:3.0000000;stroke-linecap:round;stroke-linejoin:round;stroke-miterlimit:4.0000000;stroke-opacity:1.0000000" />
      <path
         sodipodi:nodetypes="cccccc"
         id="path5749"
         d="M 72.134277,129.26285 C 72.593317,129.21159 73.277585,129.32910 73.940993,129.16325 C 74.514063,129.01998 79.273752,128.06531 79.805577,128.06531 C 80.315338,128.06531 82.526622,127.31825 82.874660,127.05722 C 83.333463,126.71312 76.953265,127.65924 76.226321,127.84097 C 74.658567,128.08593 71.825118,128.74759 72.134277,129.26285 z "
         style="fill:#da7344;fill-opacity:1.0000000;fill-rule:evenodd;stroke:none;stroke-width:1.0000000px;stroke-linecap:butt;stroke-linejoin:miter;stroke-opacity:1.0000000" />
      <path
         sodipodi:nodetypes="ccccc"
         id="path5751"
         d="M 72.274585,133.78174 C 72.950252,133.92006 76.396858,134.05019 77.333608,134.28438 C 78.186666,134.49764 84.489044,134.31409 83.737010,134.12608 C 83.143602,133.97773 77.352695,133.08944 76.658502,133.08944 C 74.978359,132.97185 72.647494,133.14811 72.274585,133.78174 z "
         style="fill:#da7344;fill-opacity:1.0000000;fill-rule:evenodd;stroke:none;stroke-width:1.0000000px;stroke-linecap:butt;stroke-linejoin:miter;stroke-opacity:1.0000000" />
      <path
         sodipodi:nodetypes="ccccc"
         id="path5753"
         d="M 74.484334,138.68025 C 75.249362,138.87151 77.941925,139.07806 78.562305,139.07806 C 79.132775,139.07806 83.884299,139.48249 84.252009,139.20671 C 84.484875,139.03206 77.358525,138.35623 75.089184,138.04265 C 72.764146,137.80746 72.253693,137.97596 72.375092,138.46155"
         style="fill:#da7344;fill-opacity:1.0000000;fill-rule:evenodd;stroke:none;stroke-width:1.0000000px;stroke-linecap:butt;stroke-linejoin:miter;stroke-opacity:1.0000000" />
      <path
         sodipodi:nodetypes="cccc"
         id="path5755"
         d="M 72.260313,144.16431 C 73.944116,144.70304 84.314945,144.36118 84.179441,143.75526 C 84.768941,143.60788 79.386613,143.84739 77.933838,143.56810 C 75.402188,143.56130 74.588732,143.00882 72.260313,144.16431 z "
         style="fill:#da7344;fill-opacity:1.0000000;fill-rule:evenodd;stroke:none;stroke-width:1.0000000px;stroke-linecap:butt;stroke-linejoin:miter;stroke-opacity:1.0000000" />
      <path
         sodipodi:nodetypes="ccccc"
         id="path5757"
         d="M 72.384752,149.25956 C 74.010097,149.40205 75.848339,150.20654 77.883026,150.43855 C 79.658240,150.74824 83.521172,150.88039 84.039737,150.88039 C 84.939264,150.88039 79.757009,149.33986 76.056868,148.89297 C 73.341803,149.10137 74.128470,148.30720 72.384752,149.25956 z "
         style="fill:#da7344;fill-opacity:1.0000000;fill-rule:evenodd;stroke:none;stroke-width:1.0000000px;stroke-linecap:butt;stroke-linejoin:miter;stroke-opacity:1.0000000" />
      <path
         sodipodi:nodetypes="ccccc"
         id="path5759"
         d="M 79.228925,124.05189 C 79.568388,124.08410 84.592368,123.57024 83.840884,123.25242 C 83.237354,123.12628 77.242697,123.77223 76.632933,123.67423 C 75.718010,123.54009 72.782579,124.08455 72.204801,124.42301 C 73.168925,124.69634 78.319946,124.58367 79.228925,124.05189 z "
         style="fill:#da7344;fill-opacity:1.0000000;fill-rule:evenodd;stroke:none;stroke-width:1.0000000px;stroke-linecap:butt;stroke-linejoin:miter;stroke-opacity:1.0000000" />
    </g>
    <g
       transform="matrix(0.706305,0.707908,-0.707908,0.706305,71.92648,-23.92866)"
       id="g5768">
      <path
         sodipodi:nodetypes="cccccc"
         id="rect5608"
         d="M 63.867929,7.9849691 L 77.898701,-32.234173 L 93.514463,7.9849691 L 87.174500,113.71107 L 68.622902,113.71107 L 63.867929,7.9849691 z "
         style="fill:url(#linearGradient5805);fill-opacity:1.0000000;fill-rule:evenodd;stroke:#869b9c;stroke-width:3.0000000;stroke-linecap:round;stroke-linejoin:round;stroke-miterlimit:4.0000000;stroke-opacity:1.0000000" />
      <path
         sodipodi:nodetypes="ccccc"
         id="path5619"
         d="M 78.437593,22.861958 L 91.777014,8.3941419 L 85.505005,114.13738 L 78.162030,114.42841 L 78.437593,22.861958 z "
         style="fill:url(#linearGradient5807);fill-opacity:1.0000000;fill-rule:evenodd;stroke:none;stroke-width:3.0000000;stroke-linecap:round;stroke-linejoin:round;stroke-miterlimit:4.0000000;stroke-opacity:1.0000000" />
      <path
         sodipodi:nodetypes="ccccc"
         id="path5623"
         d="M 77.598661,22.861958 L 65.603622,8.7302374 L 70.517806,114.66001 L 77.502838,114.58805 L 77.598661,22.861958 z "
         style="fill:url(#linearGradient5809);fill-opacity:1.0000000;fill-rule:evenodd;stroke:none;stroke-width:3.0000000;stroke-linecap:round;stroke-linejoin:round;stroke-miterlimit:4.0000000;stroke-opacity:1.0000000" />
      <path
         sodipodi:nodetypes="ccccc"
         id="path5678"
         d="M 78.649506,69.616379 C 84.302278,83.206964 87.030804,78.747302 87.596106,78.172131 L 85.990026,98.063926 C 83.025123,91.853727 80.423281,94.163035 78.458618,97.636161 L 78.649506,69.616379 z "
         style="opacity:0.45628414;fill:url(#linearGradient5811);fill-opacity:1.0000000;fill-rule:evenodd;stroke:none;stroke-width:1.0000000;stroke-linecap:butt;stroke-linejoin:miter;stroke-miterlimit:6.0000000;stroke-opacity:1.0000000" />
      <path
         sodipodi:nodetypes="ccccc"
         id="path5649"
         d="M 67.254850,44.608454 C 67.425257,49.678854 73.146851,60.641885 77.371873,56.254994 L 77.404191,85.509721 C 69.503613,56.858967 68.984775,74.356813 68.386122,72.221475 L 67.254850,44.608454 z "
         style="opacity:0.30874315;fill:url(#linearGradient5813);fill-opacity:1.0000000;fill-rule:evenodd;stroke:none;stroke-width:1.0000000px;stroke-linecap:butt;stroke-linejoin:miter;stroke-opacity:1.0000000" />
    </g>
    <g
       transform="matrix(0.706305,0.707908,-0.707908,0.706305,71.92648,-23.92866)"
       id="g5775">
      <path
         id="rect5606"
         d="M 51.505200,112.18134 L 105.88996,112.18134 L 105.88996,121.80341 L 51.505200,121.80341 L 51.505200,112.18134 z "
         style="fill:#7a8388;fill-opacity:1.0000000;fill-rule:evenodd;stroke:#4d5356;stroke-width:3.0000005;stroke-linecap:round;stroke-linejoin:round;stroke-miterlimit:4.0000000;stroke-opacity:1.0000000" />
      <path
         sodipodi:nodetypes="cccc"
         id="rect5692"
         d="M 103.41581,114.52172 L 103.61167,119.62078 L 53.958447,119.87285 C 60.613136,115.77028 98.989154,123.82535 103.41581,114.52172 z "
         style="fill:#636a6e;fill-opacity:1.0000000;fill-rule:evenodd;stroke:none;stroke-width:3.0000000;stroke-linecap:round;stroke-linejoin:round;stroke-miterlimit:4.0000000;stroke-opacity:1.0000000" />
      <path
         sodipodi:nodetypes="cccc"
         id="path5696"
         d="M 53.359777,114.01607 L 102.81538,114.01607 C 80.535051,117.42359 54.391309,111.88426 53.359777,119.35854 L 53.359777,114.01607 z "
         style="fill:#99a4ab;fill-opacity:1.0000000;fill-rule:evenodd;stroke:none;stroke-width:3.0000000;stroke-linecap:round;stroke-linejoin:round;stroke-miterlimit:4.0000000;stroke-opacity:1.0000000" />
    </g>
    <g
       transform="matrix(0.706305,0.707908,-0.707908,0.706305,71.92648,-23.92866)"
       id="g5800">
      <path
         id="rect5614"
         d="M 66.816492,152.42985 L 89.975761,152.42985 L 89.975761,160.22670 L 66.816492,160.22670 L 66.816492,152.42985 z "
         style="fill:#7a8388;fill-opacity:1.0000000;fill-rule:evenodd;stroke:#4d5356;stroke-width:3.0000000;stroke-linecap:round;stroke-linejoin:round;stroke-miterlimit:4.0000000;stroke-opacity:1.0000000" />
      <path
         sodipodi:nodetypes="cccc"
         id="path5700"
         d="M 88.275965,154.73386 L 88.354014,158.52275 L 68.567453,158.71005 C 73.706102,156.26674 86.216884,160.98692 88.275965,154.73386 z "
         style="fill:#636a6e;fill-opacity:1.0000000;fill-rule:evenodd;stroke:none;stroke-width:3.0000000;stroke-linecap:round;stroke-linejoin:round;stroke-miterlimit:4.0000000;stroke-opacity:1.0000000" />
      <path
         sodipodi:nodetypes="cccc"
         id="path5702"
         d="M 68.553868,154.27628 L 87.990034,154.27628 C 73.053547,157.38420 69.584234,150.96052 68.553868,158.44519 L 68.553868,154.27628 z "
         style="fill:#99a4ab;fill-opacity:1.0000000;fill-rule:evenodd;stroke:none;stroke-width:3.0000000;stroke-linecap:round;stroke-linejoin:round;stroke-miterlimit:4.0000000;stroke-opacity:1.0000000" />
    </g>
  </g>
</svg>
